<?xml version="1.0" encoding="UTF-8"?>
<!DOCTYPE svg PUBLIC "-//W3C//DTD SVG 1.1//EN" "http://www.w3.org/Graphics/SVG/1.1/DTD/svg11.dtd">
<!-- Creator: CorelDRAW -->
<svg xmlns="http://www.w3.org/2000/svg" xml:space="preserve" width="152.971mm" height="85.3278mm" style="shape-rendering:geometricPrecision; text-rendering:geometricPrecision; image-rendering:optimizeQuality; fill-rule:evenodd; clip-rule:evenodd"
viewBox="0 0 152.971 85.3274"
 xmlns:xlink="http://www.w3.org/1999/xlink">
 <defs>
  <style type="text/css">
   <![CDATA[
    .fil1 {fill:none}
    .fil0 {fill:#1F1A17}
    .fil3 {fill:#1F1A17;fill-rule:nonzero}
    .fil2 {fill:url(#id10);fill-rule:nonzero}
   ]]>
  </style>
    <clipPath id="id0">
     <path d="M135.59 68.7264c-1.38499,-4.23248 -3.16938,-9.75565 -3.16938,-9.75565 -0.000199999,0 -1.38329,0.571797 -1.55199,-0.190299 -0.168599,-0.762496 -0.159199,-1.11949 -0.159199,-1.11949 0,-0.000199999 -0.685096,-1.09289 -0.901395,-1.66679 -0.216099,-0.574097 -0.262299,-1.18549 -0.262299,-1.18549 0,0 -0.959995,-0.320698 -0.986995,-0.847596 -0.0274999,-0.527297 0.00179999,-1.59969 0.00179999,-1.59969 0.000199999,-0.000199999 -1.03549,0.140099 -1.16639,-0.453098 -0.130899,-0.593297 -0.111599,-1.30819 -0.111599,-1.30819 0.000299998,-0.000199999 -2.52699,-1.92519 0.752596,-3.29388 0,0 -1.85439,-4.10308 -3.00968,-6.51267 -0.793596,-1.65669 -2.23279,-4.33718 -3.34828,-5.87227 -1.05629,-1.45479 -2.54449,-1.58409 -4.29258,-1.76649 -1.09069,-0.114699 -3.95698,-3.83408 -4.36068,-4.45568 -0.403998,-0.621497 -1.57949,-1.51639 -1.57949,-1.51639 0,-9.99995e-005 -0.630797,0.761096 -0.952295,1.72099 -0.321198,0.959595 -2.31839,3.17818 -3.39168,3.94848 -1.07339,0.769596 -2.63449,0.138099 -2.98158,-0.229299 0,0 1.92159,-2.55739 2.81649,-3.73228 0.895595,-1.17559 3.31788,-5.08717 3.30888,-5.52937 -0.00929995,-0.442298 -1.38359,0.572897 -2.34399,1.05169 -0.960595,0.478497 -9.78895,3.14188 -11.0959,2.45339 -1.30719,-0.688796 -0.920595,-1.75139 -0.920595,-1.75139 3.33778,-0.274299 12.0427,-4.73548 12.7457,-5.03877l0.151599 -0.922395c0,0 -2.96988,-2.98518 -4.65288,-4.56808 -1.20919,-1.13729 -4.02388,-3.76598 -5.53637,-5.59467 -1.00329,-1.21359 -1.49899,-2.21979 -0.0247999,-3.48168 2.21659,2.89308 11.5749,8.54626 12.2793,8.92365 0,0 -1.15109,-5.60917 -0.838196,-8.60995 0.314198,-3.00148 0.355498,-6.03127 2.98018,-5.81167 -0.648197,3.39078 -0.0108999,7.58526 0.900995,10.906 0.459498,1.67499 1.73519,5.03567 3.00448,6.35417 1.26799,1.31839 3.82458,4.84027 5.50677,6.42317 1.68209,1.58239 5.41187,6.00007 7.50646,9.44595 1.23459,2.03049 3.22938,4.84967 4.65988,6.82326 0.997095,1.37449 1.71949,2.33859 1.71949,2.33859 1.39959,-0.810896 3.30518,0.0274999 2.21829,1.99679 0,0 1.25179,-0.365598 1.67439,0.340398 0.422498,0.706096 0.948595,1.47849 0.948595,1.47849l0.882795 1.58149c0,0 0.854796,1.05469 0.835096,1.76999 -0.0189999,0.714896 1.28869,0.603497 1.05229,1.54449 -0.235999,0.940395 -0.979595,1.19389 -0.979595,1.19389 0,0 7.43476,12.1755 9.71465,16.5183l-17.0429 0z"/>
    </clipPath>
     <clipPath id="id1">
      <path d="M135.59 68.7264c-1.38499,-4.23248 -3.16938,-9.75565 -3.16938,-9.75565 -0.000199999,0 -1.38329,0.571797 -1.55199,-0.190299 -0.168599,-0.762496 -0.159199,-1.11949 -0.159199,-1.11949 0,-0.000199999 -0.685096,-1.09289 -0.901395,-1.66679 -0.216099,-0.574097 -0.262299,-1.18549 -0.262299,-1.18549 0,0 -0.959995,-0.320698 -0.986995,-0.847596 -0.0274999,-0.527297 0.00179999,-1.59969 0.00179999,-1.59969 0.000199999,-0.000199999 -1.03549,0.140099 -1.16639,-0.453098 -0.130899,-0.593297 -0.111599,-1.30819 -0.111599,-1.30819 0.000299998,-0.000199999 -2.52699,-1.92519 0.752596,-3.29388 0,0 -1.85439,-4.10308 -3.00968,-6.51267 -0.793596,-1.65669 -2.23279,-4.33718 -3.34828,-5.87227 -1.05629,-1.45479 -2.54449,-1.58409 -4.29258,-1.76649 -1.09069,-0.114699 -3.95698,-3.83408 -4.36068,-4.45568 -0.403998,-0.621497 -1.57949,-1.51639 -1.57949,-1.51639 0,-9.99995e-005 -0.630797,0.761096 -0.952295,1.72099 -0.321198,0.959595 -2.31839,3.17818 -3.39168,3.94848 -1.07339,0.769596 -2.63449,0.138099 -2.98158,-0.229299 0,0 1.92159,-2.55739 2.81649,-3.73228 0.895595,-1.17559 3.31788,-5.08717 3.30888,-5.52937 -0.00929995,-0.442298 -1.38359,0.572897 -2.34399,1.05169 -0.960595,0.478497 -9.78895,3.14188 -11.0959,2.45339 -1.30719,-0.688796 -0.920595,-1.75139 -0.920595,-1.75139 3.33778,-0.274299 12.0427,-4.73548 12.7457,-5.03877l0.151599 -0.922395c0,0 -2.96988,-2.98518 -4.65288,-4.56808 -1.20919,-1.13729 -4.02388,-3.76598 -5.53637,-5.59467 -1.00329,-1.21359 -1.49899,-2.21979 -0.0247999,-3.48168 2.21659,2.89308 11.5749,8.54626 12.2793,8.92365 0,0 -1.15109,-5.60917 -0.838196,-8.60995 0.314198,-3.00148 0.355498,-6.03127 2.98018,-5.81167 -0.648197,3.39078 -0.0108999,7.58526 0.900995,10.906 0.459498,1.67499 1.73519,5.03567 3.00448,6.35417 1.26799,1.31839 3.82458,4.84027 5.50677,6.42317 1.68209,1.58239 5.41187,6.00007 7.50646,9.44595 1.23459,2.03049 3.22938,4.84967 4.65988,6.82326 0.997095,1.37449 1.71949,2.33859 1.71949,2.33859 1.39959,-0.810896 3.30518,0.0274999 2.21829,1.99679 0,0 1.25179,-0.365598 1.67439,0.340398 0.422498,0.706096 0.948595,1.47849 0.948595,1.47849l0.882795 1.58149c0,0 0.854796,1.05469 0.835096,1.76999 -0.0189999,0.714896 1.28869,0.603497 1.05229,1.54449 -0.235999,0.940395 -0.979595,1.19389 -0.979595,1.19389 0,0 7.43476,12.1755 9.71465,16.5183l-17.0429 0z"/>
     </clipPath>
     <clipPath id="id2">
      <path d="M135.59 68.7264c-1.38499,-4.23248 -3.16938,-9.75565 -3.16938,-9.75565 -0.000199999,0 -1.38329,0.571797 -1.55199,-0.190299 -0.168599,-0.762496 -0.159199,-1.11949 -0.159199,-1.11949 0,-0.000199999 -0.685096,-1.09289 -0.901395,-1.66679 -0.216099,-0.574097 -0.262299,-1.18549 -0.262299,-1.18549 0,0 -0.959995,-0.320698 -0.986995,-0.847596 -0.0274999,-0.527297 0.00179999,-1.59969 0.00179999,-1.59969 0.000199999,-0.000199999 -1.03549,0.140099 -1.16639,-0.453098 -0.130899,-0.593297 -0.111599,-1.30819 -0.111599,-1.30819 0.000299998,-0.000199999 -2.52699,-1.92519 0.752596,-3.29388 0,0 -1.85439,-4.10308 -3.00968,-6.51267 -0.793596,-1.65669 -2.23279,-4.33718 -3.34828,-5.87227 -1.05629,-1.45479 -2.54449,-1.58409 -4.29258,-1.76649 -1.09069,-0.114699 -3.95698,-3.83408 -4.36068,-4.45568 -0.403998,-0.621497 -1.57949,-1.51639 -1.57949,-1.51639 0,-9.99995e-005 -0.630797,0.761096 -0.952295,1.72099 -0.321198,0.959595 -2.31839,3.17818 -3.39168,3.94848 -1.07339,0.769596 -2.63449,0.138099 -2.98158,-0.229299 0,0 1.92159,-2.55739 2.81649,-3.73228 0.895595,-1.17559 3.31788,-5.08717 3.30888,-5.52937 -0.00929995,-0.442298 -1.38359,0.572897 -2.34399,1.05169 -0.960595,0.478497 -9.78895,3.14188 -11.0959,2.45339 -1.30719,-0.688796 -0.920595,-1.75139 -0.920595,-1.75139 3.33778,-0.274299 12.0427,-4.73548 12.7457,-5.03877l0.151599 -0.922395c0,0 -2.96988,-2.98518 -4.65288,-4.56808 -1.20919,-1.13729 -4.02388,-3.76598 -5.53637,-5.59467 -1.00329,-1.21359 -1.49899,-2.21979 -0.0247999,-3.48168 2.21659,2.89308 11.5749,8.54626 12.2793,8.92365 0,0 -1.15109,-5.60917 -0.838196,-8.60995 0.314198,-3.00148 0.355498,-6.03127 2.98018,-5.81167 -0.648197,3.39078 -0.0108999,7.58526 0.900995,10.906 0.459498,1.67499 1.73519,5.03567 3.00448,6.35417 1.26799,1.31839 3.82458,4.84027 5.50677,6.42317 1.68209,1.58239 5.41187,6.00007 7.50646,9.44595 1.23459,2.03049 3.22938,4.84967 4.65988,6.82326 0.997095,1.37449 1.71949,2.33859 1.71949,2.33859 1.39959,-0.810896 3.30518,0.0274999 2.21829,1.99679 0,0 1.25179,-0.365598 1.67439,0.340398 0.422498,0.706096 0.948595,1.47849 0.948595,1.47849l0.882795 1.58149c0,0 0.854796,1.05469 0.835096,1.76999 -0.0189999,0.714896 1.28869,0.603497 1.05229,1.54449 -0.235999,0.940395 -0.979595,1.19389 -0.979595,1.19389 0,0 7.43476,12.1755 9.71465,16.5183l-17.0429 0z"/>
     </clipPath>
     <clipPath id="id3">
      <path d="M135.59 68.7264c-1.38499,-4.23248 -3.16938,-9.75565 -3.16938,-9.75565 -0.000199999,0 -1.38329,0.571797 -1.55199,-0.190299 -0.168599,-0.762496 -0.159199,-1.11949 -0.159199,-1.11949 0,-0.000199999 -0.685096,-1.09289 -0.901395,-1.66679 -0.216099,-0.574097 -0.262299,-1.18549 -0.262299,-1.18549 0,0 -0.959995,-0.320698 -0.986995,-0.847596 -0.0274999,-0.527297 0.00179999,-1.59969 0.00179999,-1.59969 0.000199999,-0.000199999 -1.03549,0.140099 -1.16639,-0.453098 -0.130899,-0.593297 -0.111599,-1.30819 -0.111599,-1.30819 0.000299998,-0.000199999 -2.52699,-1.92519 0.752596,-3.29388 0,0 -1.85439,-4.10308 -3.00968,-6.51267 -0.793596,-1.65669 -2.23279,-4.33718 -3.34828,-5.87227 -1.05629,-1.45479 -2.54449,-1.58409 -4.29258,-1.76649 -1.09069,-0.114699 -3.95698,-3.83408 -4.36068,-4.45568 -0.403998,-0.621497 -1.57949,-1.51639 -1.57949,-1.51639 0,-9.99995e-005 -0.630797,0.761096 -0.952295,1.72099 -0.321198,0.959595 -2.31839,3.17818 -3.39168,3.94848 -1.07339,0.769596 -2.63449,0.138099 -2.98158,-0.229299 0,0 1.92159,-2.55739 2.81649,-3.73228 0.895595,-1.17559 3.31788,-5.08717 3.30888,-5.52937 -0.00929995,-0.442298 -1.38359,0.572897 -2.34399,1.05169 -0.960595,0.478497 -9.78895,3.14188 -11.0959,2.45339 -1.30719,-0.688796 -0.920595,-1.75139 -0.920595,-1.75139 3.33778,-0.274299 12.0427,-4.73548 12.7457,-5.03877l0.151599 -0.922395c0,0 -2.96988,-2.98518 -4.65288,-4.56808 -1.20919,-1.13729 -4.02388,-3.76598 -5.53637,-5.59467 -1.00329,-1.21359 -1.49899,-2.21979 -0.0247999,-3.48168 2.21659,2.89308 11.5749,8.54626 12.2793,8.92365 0,0 -1.15109,-5.60917 -0.838196,-8.60995 0.314198,-3.00148 0.355498,-6.03127 2.98018,-5.81167 -0.648197,3.39078 -0.0108999,7.58526 0.900995,10.906 0.459498,1.67499 1.73519,5.03567 3.00448,6.35417 1.26799,1.31839 3.82458,4.84027 5.50677,6.42317 1.68209,1.58239 5.41187,6.00007 7.50646,9.44595 1.23459,2.03049 3.22938,4.84967 4.65988,6.82326 0.997095,1.37449 1.71949,2.33859 1.71949,2.33859 1.39959,-0.810896 3.30518,0.0274999 2.21829,1.99679 0,0 1.25179,-0.365598 1.67439,0.340398 0.422498,0.706096 0.948595,1.47849 0.948595,1.47849l0.882795 1.58149c0,0 0.854796,1.05469 0.835096,1.76999 -0.0189999,0.714896 1.28869,0.603497 1.05229,1.54449 -0.235999,0.940395 -0.979595,1.19389 -0.979595,1.19389 0,0 7.43476,12.1755 9.71465,16.5183l-17.0429 0z"/>
     </clipPath>
     <clipPath id="id4">
      <path d="M135.59 68.7264c-1.38499,-4.23248 -3.16938,-9.75565 -3.16938,-9.75565 -0.000199999,0 -1.38329,0.571797 -1.55199,-0.190299 -0.168599,-0.762496 -0.159199,-1.11949 -0.159199,-1.11949 0,-0.000199999 -0.685096,-1.09289 -0.901395,-1.66679 -0.216099,-0.574097 -0.262299,-1.18549 -0.262299,-1.18549 0,0 -0.959995,-0.320698 -0.986995,-0.847596 -0.0274999,-0.527297 0.00179999,-1.59969 0.00179999,-1.59969 0.000199999,-0.000199999 -1.03549,0.140099 -1.16639,-0.453098 -0.130899,-0.593297 -0.111599,-1.30819 -0.111599,-1.30819 0.000299998,-0.000199999 -2.52699,-1.92519 0.752596,-3.29388 0,0 -1.85439,-4.10308 -3.00968,-6.51267 -0.793596,-1.65669 -2.23279,-4.33718 -3.34828,-5.87227 -1.05629,-1.45479 -2.54449,-1.58409 -4.29258,-1.76649 -1.09069,-0.114699 -3.95698,-3.83408 -4.36068,-4.45568 -0.403998,-0.621497 -1.57949,-1.51639 -1.57949,-1.51639 0,-9.99995e-005 -0.630797,0.761096 -0.952295,1.72099 -0.321198,0.959595 -2.31839,3.17818 -3.39168,3.94848 -1.07339,0.769596 -2.63449,0.138099 -2.98158,-0.229299 0,0 1.92159,-2.55739 2.81649,-3.73228 0.895595,-1.17559 3.31788,-5.08717 3.30888,-5.52937 -0.00929995,-0.442298 -1.38359,0.572897 -2.34399,1.05169 -0.960595,0.478497 -9.78895,3.14188 -11.0959,2.45339 -1.30719,-0.688796 -0.920595,-1.75139 -0.920595,-1.75139 3.33778,-0.274299 12.0427,-4.73548 12.7457,-5.03877l0.151599 -0.922395c0,0 -2.96988,-2.98518 -4.65288,-4.56808 -1.20919,-1.13729 -4.02388,-3.76598 -5.53637,-5.59467 -1.00329,-1.21359 -1.49899,-2.21979 -0.0247999,-3.48168 2.21659,2.89308 11.5749,8.54626 12.2793,8.92365 0,0 -1.15109,-5.60917 -0.838196,-8.60995 0.314198,-3.00148 0.355498,-6.03127 2.98018,-5.81167 -0.648197,3.39078 -0.0108999,7.58526 0.900995,10.906 0.459498,1.67499 1.73519,5.03567 3.00448,6.35417 1.26799,1.31839 3.82458,4.84027 5.50677,6.42317 1.68209,1.58239 5.41187,6.00007 7.50646,9.44595 1.23459,2.03049 3.22938,4.84967 4.65988,6.82326 0.997095,1.37449 1.71949,2.33859 1.71949,2.33859 1.39959,-0.810896 3.30518,0.0274999 2.21829,1.99679 0,0 1.25179,-0.365598 1.67439,0.340398 0.422498,0.706096 0.948595,1.47849 0.948595,1.47849l0.882795 1.58149c0,0 0.854796,1.05469 0.835096,1.76999 -0.0189999,0.714896 1.28869,0.603497 1.05229,1.54449 -0.235999,0.940395 -0.979595,1.19389 -0.979595,1.19389 0,0 7.43476,12.1755 9.71465,16.5183l-17.0429 0z"/>
     </clipPath>
    <clipPath id="id5">
     <path d="M113.211 68.7264c1.38509,-4.23248 3.16968,-9.75555 3.16968,-9.75555 0,-9.99995e-005 1.38309,0.571897 1.55159,-0.190499 0.168699,-0.762396 0.159299,-1.11939 0.159299,-1.11939 0.000199999,-0.000199999 0.685096,-1.09289 0.901595,-1.66659 0.215699,-0.574297 0.262099,-1.18569 0.262099,-1.18569 0,0 0.959995,-0.320698 0.986995,-0.847596 0.0274999,-0.527497 -0.00189999,-1.59969 -0.00189999,-1.59969 -9.99995e-005,0 1.03539,0.140099 1.16639,-0.452898 0.131099,-0.593497 0.111499,-1.30839 0.111499,-1.30839 0,-0.000199999 2.52689,-1.92539 -0.752396,-3.29368 0,0 1.85429,-4.10328 3.00968,-6.51287 0.793696,-1.65689 2.23299,-4.33718 3.34808,-5.87227 1.05669,-1.45479 2.54469,-1.58409 4.29278,-1.76669 1.09089,-0.114399 3.95718,-3.83388 4.36078,-4.45548 0.403998,-0.621497 1.57939,-1.51639 1.57939,-1.51639 0,-9.99995e-005 0.630797,0.761296 0.952095,1.72099 0.321298,0.959395 2.31849,3.17818 3.39178,3.94848 1.07349,0.769796 2.63459,0.138099 2.98188,-0.229499 0,0 -1.92159,-2.55719 -2.81669,-3.73218 -0.895395,-1.17549 -3.31788,-5.08667 -3.30898,-5.52927 0.00939995,-0.442298 1.38369,0.572697 2.34409,1.05169 0.960395,0.478397 9.78885,3.14178 11.0958,2.45339 1.30729,-0.688796 0.920495,-1.75119 0.920495,-1.75119 -3.33758,-0.274699 -12.0427,-4.73578 -12.7455,-5.03917l-0.151899 -0.922195c0,0 2.97018,-2.98538 4.65328,-4.56788 1.20909,-1.13749 4.02378,-3.76608 5.53627,-5.59487 1.00339,-1.21339 1.49919,-2.21979 0.0245999,-3.48128 -2.21629,2.89268 -11.5745,8.54606 -12.2793,8.92325 0,0 1.15139,-5.60917 0.838196,-8.61015 -0.313998,-3.00148 -0.355298,-6.03107 -2.97998,-5.81167 0.648297,3.39098 0.0106999,7.58546 -0.900995,10.906 -0.459398,1.67519 -1.73529,5.03587 -3.00428,6.35437 -1.26839,1.31839 -3.82468,4.84027 -5.50727,6.42297 -1.68179,1.58259 -5.41187,6.00007 -7.50616,9.44615 -1.23459,2.03049 -3.22958,4.84967 -4.65978,6.82326 -0.996995,1.37449 -1.71969,2.33839 -1.71969,2.33839 -1.39949,-0.810496 -3.30508,0.0278999 -2.21819,1.99699 -0.000199999,-0.000199999 -1.25159,-0.365798 -1.67439,0.340398 -0.422498,0.706096 -0.948795,1.47849 -0.948795,1.47849l-0.882595 1.58169c0,0 -0.854796,1.05449 -0.835296,1.76959 0.0191999,0.714996 -1.28869,0.603697 -1.05209,1.54449 0.235799,0.940595 0.979495,1.19419 0.979495,1.19419 0,-9.99995e-005 -7.43506,12.1756 -9.71475,16.5182l17.0431 0z"/>
    </clipPath>
     <clipPath id="id6">
      <path d="M113.211 68.7264c1.38509,-4.23248 3.16968,-9.75555 3.16968,-9.75555 0,-9.99995e-005 1.38309,0.571897 1.55159,-0.190499 0.168699,-0.762396 0.159299,-1.11939 0.159299,-1.11939 0.000199999,-0.000199999 0.685096,-1.09289 0.901595,-1.66659 0.215699,-0.574297 0.262099,-1.18569 0.262099,-1.18569 0,0 0.959995,-0.320698 0.986995,-0.847596 0.0274999,-0.527497 -0.00189999,-1.59969 -0.00189999,-1.59969 -9.99995e-005,0 1.03539,0.140099 1.16639,-0.452898 0.131099,-0.593497 0.111499,-1.30839 0.111499,-1.30839 0,-0.000199999 2.52689,-1.92539 -0.752396,-3.29368 0,0 1.85429,-4.10328 3.00968,-6.51287 0.793696,-1.65689 2.23299,-4.33718 3.34808,-5.87227 1.05669,-1.45479 2.54469,-1.58409 4.29278,-1.76669 1.09089,-0.114399 3.95718,-3.83388 4.36078,-4.45548 0.403998,-0.621497 1.57939,-1.51639 1.57939,-1.51639 0,-9.99995e-005 0.630797,0.761296 0.952095,1.72099 0.321298,0.959395 2.31849,3.17818 3.39178,3.94848 1.07349,0.769796 2.63459,0.138099 2.98188,-0.229499 0,0 -1.92159,-2.55719 -2.81669,-3.73218 -0.895395,-1.17549 -3.31788,-5.08667 -3.30898,-5.52927 0.00939995,-0.442298 1.38369,0.572697 2.34409,1.05169 0.960395,0.478397 9.78885,3.14178 11.0958,2.45339 1.30729,-0.688796 0.920495,-1.75119 0.920495,-1.75119 -3.33758,-0.274699 -12.0427,-4.73578 -12.7455,-5.03917l-0.151899 -0.922195c0,0 2.97018,-2.98538 4.65328,-4.56788 1.20909,-1.13749 4.02378,-3.76608 5.53627,-5.59487 1.00339,-1.21339 1.49919,-2.21979 0.0245999,-3.48128 -2.21629,2.89268 -11.5745,8.54606 -12.2793,8.92325 0,0 1.15139,-5.60917 0.838196,-8.61015 -0.313998,-3.00148 -0.355298,-6.03107 -2.97998,-5.81167 0.648297,3.39098 0.0106999,7.58546 -0.900995,10.906 -0.459398,1.67519 -1.73529,5.03587 -3.00428,6.35437 -1.26839,1.31839 -3.82468,4.84027 -5.50727,6.42297 -1.68179,1.58259 -5.41187,6.00007 -7.50616,9.44615 -1.23459,2.03049 -3.22958,4.84967 -4.65978,6.82326 -0.996995,1.37449 -1.71969,2.33839 -1.71969,2.33839 -1.39949,-0.810496 -3.30508,0.0278999 -2.21819,1.99699 -0.000199999,-0.000199999 -1.25159,-0.365798 -1.67439,0.340398 -0.422498,0.706096 -0.948795,1.47849 -0.948795,1.47849l-0.882595 1.58169c0,0 -0.854796,1.05449 -0.835296,1.76959 0.0191999,0.714996 -1.28869,0.603697 -1.05209,1.54449 0.235799,0.940595 0.979495,1.19419 0.979495,1.19419 0,-9.99995e-005 -7.43506,12.1756 -9.71475,16.5182l17.0431 0z"/>
     </clipPath>
     <clipPath id="id7">
      <path d="M113.211 68.7264c1.38509,-4.23248 3.16968,-9.75555 3.16968,-9.75555 0,-9.99995e-005 1.38309,0.571897 1.55159,-0.190499 0.168699,-0.762396 0.159299,-1.11939 0.159299,-1.11939 0.000199999,-0.000199999 0.685096,-1.09289 0.901595,-1.66659 0.215699,-0.574297 0.262099,-1.18569 0.262099,-1.18569 0,0 0.959995,-0.320698 0.986995,-0.847596 0.0274999,-0.527497 -0.00189999,-1.59969 -0.00189999,-1.59969 -9.99995e-005,0 1.03539,0.140099 1.16639,-0.452898 0.131099,-0.593497 0.111499,-1.30839 0.111499,-1.30839 0,-0.000199999 2.52689,-1.92539 -0.752396,-3.29368 0,0 1.85429,-4.10328 3.00968,-6.51287 0.793696,-1.65689 2.23299,-4.33718 3.34808,-5.87227 1.05669,-1.45479 2.54469,-1.58409 4.29278,-1.76669 1.09089,-0.114399 3.95718,-3.83388 4.36078,-4.45548 0.403998,-0.621497 1.57939,-1.51639 1.57939,-1.51639 0,-9.99995e-005 0.630797,0.761296 0.952095,1.72099 0.321298,0.959395 2.31849,3.17818 3.39178,3.94848 1.07349,0.769796 2.63459,0.138099 2.98188,-0.229499 0,0 -1.92159,-2.55719 -2.81669,-3.73218 -0.895395,-1.17549 -3.31788,-5.08667 -3.30898,-5.52927 0.00939995,-0.442298 1.38369,0.572697 2.34409,1.05169 0.960395,0.478397 9.78885,3.14178 11.0958,2.45339 1.30729,-0.688796 0.920495,-1.75119 0.920495,-1.75119 -3.33758,-0.274699 -12.0427,-4.73578 -12.7455,-5.03917l-0.151899 -0.922195c0,0 2.97018,-2.98538 4.65328,-4.56788 1.20909,-1.13749 4.02378,-3.76608 5.53627,-5.59487 1.00339,-1.21339 1.49919,-2.21979 0.0245999,-3.48128 -2.21629,2.89268 -11.5745,8.54606 -12.2793,8.92325 0,0 1.15139,-5.60917 0.838196,-8.61015 -0.313998,-3.00148 -0.355298,-6.03107 -2.97998,-5.81167 0.648297,3.39098 0.0106999,7.58546 -0.900995,10.906 -0.459398,1.67519 -1.73529,5.03587 -3.00428,6.35437 -1.26839,1.31839 -3.82468,4.84027 -5.50727,6.42297 -1.68179,1.58259 -5.41187,6.00007 -7.50616,9.44615 -1.23459,2.03049 -3.22958,4.84967 -4.65978,6.82326 -0.996995,1.37449 -1.71969,2.33839 -1.71969,2.33839 -1.39949,-0.810496 -3.30508,0.0278999 -2.21819,1.99699 -0.000199999,-0.000199999 -1.25159,-0.365798 -1.67439,0.340398 -0.422498,0.706096 -0.948795,1.47849 -0.948795,1.47849l-0.882595 1.58169c0,0 -0.854796,1.05449 -0.835296,1.76959 0.0191999,0.714996 -1.28869,0.603697 -1.05209,1.54449 0.235799,0.940595 0.979495,1.19419 0.979495,1.19419 0,-9.99995e-005 -7.43506,12.1756 -9.71475,16.5182l17.0431 0z"/>
     </clipPath>
     <clipPath id="id8">
      <path d="M113.211 68.7264c1.38509,-4.23248 3.16968,-9.75555 3.16968,-9.75555 0,-9.99995e-005 1.38309,0.571897 1.55159,-0.190499 0.168699,-0.762396 0.159299,-1.11939 0.159299,-1.11939 0.000199999,-0.000199999 0.685096,-1.09289 0.901595,-1.66659 0.215699,-0.574297 0.262099,-1.18569 0.262099,-1.18569 0,0 0.959995,-0.320698 0.986995,-0.847596 0.0274999,-0.527497 -0.00189999,-1.59969 -0.00189999,-1.59969 -9.99995e-005,0 1.03539,0.140099 1.16639,-0.452898 0.131099,-0.593497 0.111499,-1.30839 0.111499,-1.30839 0,-0.000199999 2.52689,-1.92539 -0.752396,-3.29368 0,0 1.85429,-4.10328 3.00968,-6.51287 0.793696,-1.65689 2.23299,-4.33718 3.34808,-5.87227 1.05669,-1.45479 2.54469,-1.58409 4.29278,-1.76669 1.09089,-0.114399 3.95718,-3.83388 4.36078,-4.45548 0.403998,-0.621497 1.57939,-1.51639 1.57939,-1.51639 0,-9.99995e-005 0.630797,0.761296 0.952095,1.72099 0.321298,0.959395 2.31849,3.17818 3.39178,3.94848 1.07349,0.769796 2.63459,0.138099 2.98188,-0.229499 0,0 -1.92159,-2.55719 -2.81669,-3.73218 -0.895395,-1.17549 -3.31788,-5.08667 -3.30898,-5.52927 0.00939995,-0.442298 1.38369,0.572697 2.34409,1.05169 0.960395,0.478397 9.78885,3.14178 11.0958,2.45339 1.30729,-0.688796 0.920495,-1.75119 0.920495,-1.75119 -3.33758,-0.274699 -12.0427,-4.73578 -12.7455,-5.03917l-0.151899 -0.922195c0,0 2.97018,-2.98538 4.65328,-4.56788 1.20909,-1.13749 4.02378,-3.76608 5.53627,-5.59487 1.00339,-1.21339 1.49919,-2.21979 0.0245999,-3.48128 -2.21629,2.89268 -11.5745,8.54606 -12.2793,8.92325 0,0 1.15139,-5.60917 0.838196,-8.61015 -0.313998,-3.00148 -0.355298,-6.03107 -2.97998,-5.81167 0.648297,3.39098 0.0106999,7.58546 -0.900995,10.906 -0.459398,1.67519 -1.73529,5.03587 -3.00428,6.35437 -1.26839,1.31839 -3.82468,4.84027 -5.50727,6.42297 -1.68179,1.58259 -5.41187,6.00007 -7.50616,9.44615 -1.23459,2.03049 -3.22958,4.84967 -4.65978,6.82326 -0.996995,1.37449 -1.71969,2.33839 -1.71969,2.33839 -1.39949,-0.810496 -3.30508,0.0278999 -2.21819,1.99699 -0.000199999,-0.000199999 -1.25159,-0.365798 -1.67439,0.340398 -0.422498,0.706096 -0.948795,1.47849 -0.948795,1.47849l-0.882595 1.58169c0,0 -0.854796,1.05449 -0.835296,1.76959 0.0191999,0.714996 -1.28869,0.603697 -1.05209,1.54449 0.235799,0.940595 0.979495,1.19419 0.979495,1.19419 0,-9.99995e-005 -7.43506,12.1756 -9.71475,16.5182l17.0431 0z"/>
     </clipPath>
     <clipPath id="id9">
      <path d="M113.211 68.7264c1.38509,-4.23248 3.16968,-9.75555 3.16968,-9.75555 0,-9.99995e-005 1.38309,0.571897 1.55159,-0.190499 0.168699,-0.762396 0.159299,-1.11939 0.159299,-1.11939 0.000199999,-0.000199999 0.685096,-1.09289 0.901595,-1.66659 0.215699,-0.574297 0.262099,-1.18569 0.262099,-1.18569 0,0 0.959995,-0.320698 0.986995,-0.847596 0.0274999,-0.527497 -0.00189999,-1.59969 -0.00189999,-1.59969 -9.99995e-005,0 1.03539,0.140099 1.16639,-0.452898 0.131099,-0.593497 0.111499,-1.30839 0.111499,-1.30839 0,-0.000199999 2.52689,-1.92539 -0.752396,-3.29368 0,0 1.85429,-4.10328 3.00968,-6.51287 0.793696,-1.65689 2.23299,-4.33718 3.34808,-5.87227 1.05669,-1.45479 2.54469,-1.58409 4.29278,-1.76669 1.09089,-0.114399 3.95718,-3.83388 4.36078,-4.45548 0.403998,-0.621497 1.57939,-1.51639 1.57939,-1.51639 0,-9.99995e-005 0.630797,0.761296 0.952095,1.72099 0.321298,0.959395 2.31849,3.17818 3.39178,3.94848 1.07349,0.769796 2.63459,0.138099 2.98188,-0.229499 0,0 -1.92159,-2.55719 -2.81669,-3.73218 -0.895395,-1.17549 -3.31788,-5.08667 -3.30898,-5.52927 0.00939995,-0.442298 1.38369,0.572697 2.34409,1.05169 0.960395,0.478397 9.78885,3.14178 11.0958,2.45339 1.30729,-0.688796 0.920495,-1.75119 0.920495,-1.75119 -3.33758,-0.274699 -12.0427,-4.73578 -12.7455,-5.03917l-0.151899 -0.922195c0,0 2.97018,-2.98538 4.65328,-4.56788 1.20909,-1.13749 4.02378,-3.76608 5.53627,-5.59487 1.00339,-1.21339 1.49919,-2.21979 0.0245999,-3.48128 -2.21629,2.89268 -11.5745,8.54606 -12.2793,8.92325 0,0 1.15139,-5.60917 0.838196,-8.61015 -0.313998,-3.00148 -0.355298,-6.03107 -2.97998,-5.81167 0.648297,3.39098 0.0106999,7.58546 -0.900995,10.906 -0.459398,1.67519 -1.73529,5.03587 -3.00428,6.35437 -1.26839,1.31839 -3.82468,4.84027 -5.50727,6.42297 -1.68179,1.58259 -5.41187,6.00007 -7.50616,9.44615 -1.23459,2.03049 -3.22958,4.84967 -4.65978,6.82326 -0.996995,1.37449 -1.71969,2.33839 -1.71969,2.33839 -1.39949,-0.810496 -3.30508,0.0278999 -2.21819,1.99699 -0.000199999,-0.000199999 -1.25159,-0.365798 -1.67439,0.340398 -0.422498,0.706096 -0.948795,1.47849 -0.948795,1.47849l-0.882595 1.58169c0,0 -0.854796,1.05449 -0.835296,1.76959 0.0191999,0.714996 -1.28869,0.603697 -1.05209,1.54449 0.235799,0.940595 0.979495,1.19419 0.979495,1.19419 0,-9.99995e-005 -7.43506,12.1756 -9.71475,16.5182l17.0431 0z"/>
     </clipPath>
  <linearGradient id="id10" gradientUnits="userSpaceOnUse" x1="82.2163" y1="54.1711" x2="18.0474" y2="54.1711">
   <stop offset="0" style="stop-color:#411851"/>
   <stop offset="1" style="stop-color:#DD137B"/>
  </linearGradient>
 </defs>
 <g id="Layer_x0020_1">
  <metadata id="CorelCorpID_0Corel-Layer"/>
  <g id="_116801552">
   <path id="_116801336" class="fil0" d="M135.59 68.7264c-1.38499,-4.23248 -3.16938,-9.75565 -3.16938,-9.75565 -0.000199999,0 -1.38329,0.571797 -1.55199,-0.190299 -0.168599,-0.762496 -0.159199,-1.11949 -0.159199,-1.11949 0,-0.000199999 -0.685096,-1.09289 -0.901395,-1.66679 -0.216099,-0.574097 -0.262299,-1.18549 -0.262299,-1.18549 0,0 -0.959995,-0.320698 -0.986995,-0.847596 -0.0274999,-0.527297 0.00179999,-1.59969 0.00179999,-1.59969 0.000199999,-0.000199999 -1.03549,0.140099 -1.16639,-0.453098 -0.130899,-0.593297 -0.111599,-1.30819 -0.111599,-1.30819 0.000299998,-0.000199999 -2.52699,-1.92519 0.752596,-3.29388 0,0 -1.85439,-4.10308 -3.00968,-6.51267 -0.793596,-1.65669 -2.23279,-4.33718 -3.34828,-5.87227 -1.05629,-1.45479 -2.54449,-1.58409 -4.29258,-1.76649 -1.09069,-0.114699 -3.95698,-3.83408 -4.36068,-4.45568 -0.403998,-0.621497 -1.57949,-1.51639 -1.57949,-1.51639 0,-9.99995e-005 -0.630797,0.761096 -0.952295,1.72099 -0.321198,0.959595 -2.31839,3.17818 -3.39168,3.94848 -1.07339,0.769596 -2.63449,0.138099 -2.98158,-0.229299 0,0 1.92159,-2.55739 2.81649,-3.73228 0.895595,-1.17559 3.31788,-5.08717 3.30888,-5.52937 -0.00929995,-0.442298 -1.38359,0.572897 -2.34399,1.05169 -0.960595,0.478497 -9.78895,3.14188 -11.0959,2.45339 -1.30719,-0.688796 -0.920595,-1.75139 -0.920595,-1.75139 3.33778,-0.274299 12.0427,-4.73548 12.7457,-5.03877l0.151599 -0.922395c0,0 -2.96988,-2.98518 -4.65288,-4.56808 -1.20919,-1.13729 -4.02388,-3.76598 -5.53637,-5.59467 -1.00329,-1.21359 -1.49899,-2.21979 -0.0247999,-3.48168 2.21659,2.89308 11.5749,8.54626 12.2793,8.92365 0,0 -1.15109,-5.60917 -0.838196,-8.60995 0.314198,-3.00148 0.355498,-6.03127 2.98018,-5.81167 -0.648197,3.39078 -0.0108999,7.58526 0.900995,10.906 0.459498,1.67499 1.73519,5.03567 3.00448,6.35417 1.26799,1.31839 3.82458,4.84027 5.50677,6.42317 1.68209,1.58239 5.41187,6.00007 7.50646,9.44595 1.23459,2.03049 3.22938,4.84967 4.65988,6.82326 0.997095,1.37449 1.71949,2.33859 1.71949,2.33859 1.39959,-0.810896 3.30518,0.0274999 2.21829,1.99679 0,0 1.25179,-0.365598 1.67439,0.340398 0.422498,0.706096 0.948595,1.47849 0.948595,1.47849l0.882795 1.58149c0,0 0.854796,1.05469 0.835096,1.76999 -0.0189999,0.714896 1.28869,0.603497 1.05229,1.54449 -0.235999,0.940395 -0.979595,1.19389 -0.979595,1.19389 0,0 7.43476,12.1755 9.71465,16.5183l-17.0429 0z"/>
   <g style="clip-path:url(#id0)">
    <g>
    </g>
    <g style="clip-path:url(#id1)">
    </g>
    <g style="clip-path:url(#id2)">
     <image id="Layer_x0020_1_0" transform="matrix(1 0 0 1 -179.301 209.58)" x="76.4857" y="-285.005" width="340.096" height="327.668" xlink:href="Logo_Images\Logo_ImgID1.png"/>
    </g>
    <g style="clip-path:url(#id3)">
    </g>
    <g style="clip-path:url(#id4)">
    </g>
   </g>
   <path class="fil1" d="M135.59 68.7264c-1.38499,-4.23248 -3.16938,-9.75565 -3.16938,-9.75565 -0.000199999,0 -1.38329,0.571797 -1.55199,-0.190299 -0.168599,-0.762496 -0.159199,-1.11949 -0.159199,-1.11949 0,-0.000199999 -0.685096,-1.09289 -0.901395,-1.66679 -0.216099,-0.574097 -0.262299,-1.18549 -0.262299,-1.18549 0,0 -0.959995,-0.320698 -0.986995,-0.847596 -0.0274999,-0.527297 0.00179999,-1.59969 0.00179999,-1.59969 0.000199999,-0.000199999 -1.03549,0.140099 -1.16639,-0.453098 -0.130899,-0.593297 -0.111599,-1.30819 -0.111599,-1.30819 0.000299998,-0.000199999 -2.52699,-1.92519 0.752596,-3.29388 0,0 -1.85439,-4.10308 -3.00968,-6.51267 -0.793596,-1.65669 -2.23279,-4.33718 -3.34828,-5.87227 -1.05629,-1.45479 -2.54449,-1.58409 -4.29258,-1.76649 -1.09069,-0.114699 -3.95698,-3.83408 -4.36068,-4.45568 -0.403998,-0.621497 -1.57949,-1.51639 -1.57949,-1.51639 0,-9.99995e-005 -0.630797,0.761096 -0.952295,1.72099 -0.321198,0.959595 -2.31839,3.17818 -3.39168,3.94848 -1.07339,0.769596 -2.63449,0.138099 -2.98158,-0.229299 0,0 1.92159,-2.55739 2.81649,-3.73228 0.895595,-1.17559 3.31788,-5.08717 3.30888,-5.52937 -0.00929995,-0.442298 -1.38359,0.572897 -2.34399,1.05169 -0.960595,0.478497 -9.78895,3.14188 -11.0959,2.45339 -1.30719,-0.688796 -0.920595,-1.75139 -0.920595,-1.75139 3.33778,-0.274299 12.0427,-4.73548 12.7457,-5.03877l0.151599 -0.922395c0,0 -2.96988,-2.98518 -4.65288,-4.56808 -1.20919,-1.13729 -4.02388,-3.76598 -5.53637,-5.59467 -1.00329,-1.21359 -1.49899,-2.21979 -0.0247999,-3.48168 2.21659,2.89308 11.5749,8.54626 12.2793,8.92365 0,0 -1.15109,-5.60917 -0.838196,-8.60995 0.314198,-3.00148 0.355498,-6.03127 2.98018,-5.81167 -0.648197,3.39078 -0.0108999,7.58526 0.900995,10.906 0.459498,1.67499 1.73519,5.03567 3.00448,6.35417 1.26799,1.31839 3.82458,4.84027 5.50677,6.42317 1.68209,1.58239 5.41187,6.00007 7.50646,9.44595 1.23459,2.03049 3.22938,4.84967 4.65988,6.82326 0.997095,1.37449 1.71949,2.33859 1.71949,2.33859 1.39959,-0.810896 3.30518,0.0274999 2.21829,1.99679 0,0 1.25179,-0.365598 1.67439,0.340398 0.422498,0.706096 0.948595,1.47849 0.948595,1.47849l0.882795 1.58149c0,0 0.854796,1.05469 0.835096,1.76999 -0.0189999,0.714896 1.28869,0.603497 1.05229,1.54449 -0.235999,0.940395 -0.979595,1.19389 -0.979595,1.19389 0,0 7.43476,12.1755 9.71465,16.5183l-17.0429 0z"/>
   <path id="_116801888" class="fil0" d="M113.211 68.7264c1.38509,-4.23248 3.16968,-9.75555 3.16968,-9.75555 0,-9.99995e-005 1.38309,0.571897 1.55159,-0.190499 0.168699,-0.762396 0.159299,-1.11939 0.159299,-1.11939 0.000199999,-0.000199999 0.685096,-1.09289 0.901595,-1.66659 0.215699,-0.574297 0.262099,-1.18569 0.262099,-1.18569 0,0 0.959995,-0.320698 0.986995,-0.847596 0.0274999,-0.527497 -0.00189999,-1.59969 -0.00189999,-1.59969 -9.99995e-005,0 1.03539,0.140099 1.16639,-0.452898 0.131099,-0.593497 0.111499,-1.30839 0.111499,-1.30839 0,-0.000199999 2.52689,-1.92539 -0.752396,-3.29368 0,0 1.85429,-4.10328 3.00968,-6.51287 0.793696,-1.65689 2.23299,-4.33718 3.34808,-5.87227 1.05669,-1.45479 2.54469,-1.58409 4.29278,-1.76669 1.09089,-0.114399 3.95718,-3.83388 4.36078,-4.45548 0.403998,-0.621497 1.57939,-1.51639 1.57939,-1.51639 0,-9.99995e-005 0.630797,0.761296 0.952095,1.72099 0.321298,0.959395 2.31849,3.17818 3.39178,3.94848 1.07349,0.769796 2.63459,0.138099 2.98188,-0.229499 0,0 -1.92159,-2.55719 -2.81669,-3.73218 -0.895395,-1.17549 -3.31788,-5.08667 -3.30898,-5.52927 0.00939995,-0.442298 1.38369,0.572697 2.34409,1.05169 0.960395,0.478397 9.78885,3.14178 11.0958,2.45339 1.30729,-0.688796 0.920495,-1.75119 0.920495,-1.75119 -3.33758,-0.274699 -12.0427,-4.73578 -12.7455,-5.03917l-0.151899 -0.922195c0,0 2.97018,-2.98538 4.65328,-4.56788 1.20909,-1.13749 4.02378,-3.76608 5.53627,-5.59487 1.00339,-1.21339 1.49919,-2.21979 0.0245999,-3.48128 -2.21629,2.89268 -11.5745,8.54606 -12.2793,8.92325 0,0 1.15139,-5.60917 0.838196,-8.61015 -0.313998,-3.00148 -0.355298,-6.03107 -2.97998,-5.81167 0.648297,3.39098 0.0106999,7.58546 -0.900995,10.906 -0.459398,1.67519 -1.73529,5.03587 -3.00428,6.35437 -1.26839,1.31839 -3.82468,4.84027 -5.50727,6.42297 -1.68179,1.58259 -5.41187,6.00007 -7.50616,9.44615 -1.23459,2.03049 -3.22958,4.84967 -4.65978,6.82326 -0.996995,1.37449 -1.71969,2.33839 -1.71969,2.33839 -1.39949,-0.810496 -3.30508,0.0278999 -2.21819,1.99699 -0.000199999,-0.000199999 -1.25159,-0.365798 -1.67439,0.340398 -0.422498,0.706096 -0.948795,1.47849 -0.948795,1.47849l-0.882595 1.58169c0,0 -0.854796,1.05449 -0.835296,1.76959 0.0191999,0.714996 -1.28869,0.603697 -1.05209,1.54449 0.235799,0.940595 0.979495,1.19419 0.979495,1.19419 0,-9.99995e-005 -7.43506,12.1756 -9.71475,16.5182l17.0431 0z"/>
   <g style="clip-path:url(#id5)">
    <g>
    </g>
    <g style="clip-path:url(#id6)">
    </g>
    <g style="clip-path:url(#id7)">
     <image id="Layer_x0020_2" transform="matrix(1 0 0 1 -43.0683 79.5185)" x="76.4857" y="-176.574" width="200.655" height="219.238" xlink:href="Logo_Images\Logo_ImgID2.png"/>
    </g>
    <g style="clip-path:url(#id8)">
    </g>
    <g style="clip-path:url(#id9)">
    </g>
   </g>
   <path class="fil1" d="M113.211 68.7264c1.38509,-4.23248 3.16968,-9.75555 3.16968,-9.75555 0,-9.99995e-005 1.38309,0.571897 1.55159,-0.190499 0.168699,-0.762396 0.159299,-1.11939 0.159299,-1.11939 0.000199999,-0.000199999 0.685096,-1.09289 0.901595,-1.66659 0.215699,-0.574297 0.262099,-1.18569 0.262099,-1.18569 0,0 0.959995,-0.320698 0.986995,-0.847596 0.0274999,-0.527497 -0.00189999,-1.59969 -0.00189999,-1.59969 -9.99995e-005,0 1.03539,0.140099 1.16639,-0.452898 0.131099,-0.593497 0.111499,-1.30839 0.111499,-1.30839 0,-0.000199999 2.52689,-1.92539 -0.752396,-3.29368 0,0 1.85429,-4.10328 3.00968,-6.51287 0.793696,-1.65689 2.23299,-4.33718 3.34808,-5.87227 1.05669,-1.45479 2.54469,-1.58409 4.29278,-1.76669 1.09089,-0.114399 3.95718,-3.83388 4.36078,-4.45548 0.403998,-0.621497 1.57939,-1.51639 1.57939,-1.51639 0,-9.99995e-005 0.630797,0.761296 0.952095,1.72099 0.321298,0.959395 2.31849,3.17818 3.39178,3.94848 1.07349,0.769796 2.63459,0.138099 2.98188,-0.229499 0,0 -1.92159,-2.55719 -2.81669,-3.73218 -0.895395,-1.17549 -3.31788,-5.08667 -3.30898,-5.52927 0.00939995,-0.442298 1.38369,0.572697 2.34409,1.05169 0.960395,0.478397 9.78885,3.14178 11.0958,2.45339 1.30729,-0.688796 0.920495,-1.75119 0.920495,-1.75119 -3.33758,-0.274699 -12.0427,-4.73578 -12.7455,-5.03917l-0.151899 -0.922195c0,0 2.97018,-2.98538 4.65328,-4.56788 1.20909,-1.13749 4.02378,-3.76608 5.53627,-5.59487 1.00339,-1.21339 1.49919,-2.21979 0.0245999,-3.48128 -2.21629,2.89268 -11.5745,8.54606 -12.2793,8.92325 0,0 1.15139,-5.60917 0.838196,-8.61015 -0.313998,-3.00148 -0.355298,-6.03107 -2.97998,-5.81167 0.648297,3.39098 0.0106999,7.58546 -0.900995,10.906 -0.459398,1.67519 -1.73529,5.03587 -3.00428,6.35437 -1.26839,1.31839 -3.82468,4.84027 -5.50727,6.42297 -1.68179,1.58259 -5.41187,6.00007 -7.50616,9.44615 -1.23459,2.03049 -3.22958,4.84967 -4.65978,6.82326 -0.996995,1.37449 -1.71969,2.33839 -1.71969,2.33839 -1.39949,-0.810496 -3.30508,0.0278999 -2.21819,1.99699 -0.000199999,-0.000199999 -1.25159,-0.365798 -1.67439,0.340398 -0.422498,0.706096 -0.948795,1.47849 -0.948795,1.47849l-0.882595 1.58169c0,0 -0.854796,1.05449 -0.835296,1.76959 0.0191999,0.714996 -1.28869,0.603697 -1.05209,1.54449 0.235799,0.940595 0.979495,1.19419 0.979495,1.19419 0,-9.99995e-005 -7.43506,12.1756 -9.71475,16.5182l17.0431 0z"/>
   <path id="_116802728" class="fil2" d="M9.57875 68.7264c1.45759,-0.00699996 2.78339,-0.249899 3.98418,-0.728696 1.20069,-0.479097 2.24199,-1.15239 3.12338,-2.03379 0.874595,-0.874595 1.55499,-1.90889 2.03379,-3.10278 0.478897,-1.20079 0.721896,-2.51949 0.728796,-3.96328l0 -19.2824 -6.16357 0 0 18.7826c-0.00709996,0.936995 -0.194499,1.76299 -0.569297,2.47109 -0.367798,0.707996 -0.881395,1.26319 -1.52699,1.66579 -0.652397,0.402498 -1.39519,0.603997 -2.23499,0.610797 -0.645597,-0.00679996 -1.28419,-0.138799 -1.90889,-0.402498 -0.631497,-0.263799 -1.20079,-0.638597 -1.72139,-1.11059 -0.513597,-0.472098 -0.929995,-1.02039 -1.24239,-1.65199l-4.08138 3.99808c0.485897,0.700996 1.08289,1.33959 1.79069,1.91569 0.708096,0.583097 1.48539,1.08279 2.34619,1.50629 0.853796,0.423398 1.74229,0.742596 2.67229,0.978595 0.923195,0.229199 1.84639,0.347098 2.76959,0.347098zm33.5042 -0.499797l6.91316 0 -11.661 -28.6112 -6.87166 0 -11.661 28.6112 6.87186 0c4.21578,-10.3487 3.12648,-7.66196 8.20436,-20.1569 4.55238,11.2027 4.53938,11.1611 8.20436,20.1569zm16.1798 -5.53907l0 -23.0721 -6.16387 0 0 28.6112 20.4068 0 0 -5.53907 -14.2429 0zm17.346 5.53907l6.12197 0 0 -7.61026 0 -1.67699 0 -5.62217 0 -8.07946 6.08037 0c1.02039,0 1.91569,0.173499 2.67919,0.499697 0.763696,0.333298 1.36049,0.798296 1.79089,1.40209 0.430298,0.603997 0.645597,1.31189 0.652397,2.13799 -0.00679996,0.825996 -0.222099,1.53379 -0.652397,2.13789 -0.430398,0.603797 -1.02719,1.06879 -1.79089,1.40199 -0.763496,0.326198 -1.65879,0.492897 -2.67919,0.499797l-6.08037 0 5.62227 5.62217 1.12439 0c1.56179,-0.00679996 2.99168,-0.242799 4.30358,-0.714796 1.31189,-0.465098 2.45019,-1.13149 3.41488,-1.99199 0.971795,-0.860795 1.72149,-1.88119 2.25599,-3.05418 0.534497,-1.18009 0.805296,-2.47789 0.812096,-3.90088 -0.00679996,-1.42289 -0.277599,-2.72089 -0.812096,-3.90098 -0.534497,-1.17309 -1.28419,-2.19329 -2.25599,-3.05398 -0.964695,-0.860695 -2.10299,-1.52719 -3.41488,-1.99219 -1.31189,-0.471998 -2.74179,-0.708096 -4.30358,-0.714896l-12.8686 0 0 28.6112z"/>
   <g>
    <path id="_116802392" class="fil3" d="M1.60019 85.1232l3.94758 0c0.930195,-0.00289998 1.78389,-0.147399 2.55529,-0.433898 0.771296,-0.286299 1.43779,-0.689096 2.00209,-1.21099 0.561597,-0.521797 0.998295,-1.13719 1.30459,-1.85189 0.309098,-0.711796 0.464998,-1.49739 0.467898,-2.35669 -0.00289998,-0.859296 -0.158799,-1.64489 -0.467898,-2.35379 -0.306298,-0.711796 -0.742996,-1.32739 -1.30459,-1.84629 -0.564297,-0.521697 -1.23079,-0.921595 -2.00209,-1.20519 -0.771396,-0.283599 -1.62509,-0.428398 -2.55529,-0.431098l-3.94758 0 0 11.6898zm1.32719 -1.20819l0 -9.27355 2.62039 0c0.734496,0.00289998 1.40659,0.116199 2.01349,0.343098 0.606897,0.224099 1.13439,0.544697 1.57689,0.955695 0.442398,0.414098 0.785596,0.901895 1.02949,1.46349 0.240899,0.564297 0.362998,1.18549 0.365898,1.86599 -0.00289998,0.683496 -0.124999,1.30749 -0.365898,1.87469 -0.243899,0.567197 -0.587097,1.05499 -1.02949,1.46909 -0.442498,0.413898 -0.969995,0.734296 -1.57689,0.958495 -0.606897,0.226799 -1.27899,0.340298 -2.01349,0.342998l-2.62039 0zm20.8956 1.20819l1.44629 0 -5.15577 -11.6898 -1.44649 0 -5.15587 11.6898 1.44659 0 1.17409 -2.65449 6.51707 0 1.17409 2.65449zm-7.14676 -3.91358l2.72259 -6.14267 2.70539 6.14267 -5.42797 0zm10.737 3.91358l1.32719 0 0 -9.51185 7.24876 9.51185 1.32709 0 0 -11.6898 -1.32709 0 0 9.51195 -7.24876 -9.51195 -1.32719 0 0 11.6898zm18.377 0.204199c0.541697,-0.00289998 1.06359,-0.0764996 1.56549,-0.221099 0.504897,-0.144599 0.978395,-0.351698 1.42369,-0.618297 0.445198,-0.266599 0.847896,-0.581497 1.21379,-0.947195l-0.901795 -0.918795c-0.286499,0.303398 -0.601197,0.564297 -0.950095,0.785396 -0.348798,0.221299 -0.720296,0.391398 -1.11739,0.510497 -0.396998,0.122099 -0.808196,0.181599 -1.23369,0.184299 -0.635297,-0.00559997 -1.23079,-0.133199 -1.78949,-0.385598 -0.555797,-0.252299 -1.04919,-0.604197 -1.47749,-1.04639 -0.428198,-0.445398 -0.762896,-0.958595 -1.00679,-1.54009 -0.243899,-0.581197 -0.365698,-1.19949 -0.371498,-1.86039 0.00289998,-0.524597 0.0822996,-1.02369 0.241199,-1.50009 0.158599,-0.476598 0.382698,-0.918995 0.669097,-1.31889 0.286499,-0.402698 0.623897,-0.754396 1.01259,-1.05199 0.388498,-0.297898 0.811096,-0.530397 1.27339,-0.694896 0.459398,-0.164399 0.944295,-0.246699 1.44899,-0.249599 0.425498,0 0.836696,0.0623997 1.23369,0.181599 0.397098,0.121799 0.768596,0.292098 1.11739,0.513197 0.348898,0.221299 0.663597,0.482197 0.950095,0.785596l0.901795 -0.918795c-0.365898,-0.371498 -0.768596,-0.689296 -1.21379,-0.955695 -0.445298,-0.266599 -0.918795,-0.470798 -1.42369,-0.612697 -0.501897,-0.144599 -1.02379,-0.218199 -1.56549,-0.218199 -0.649297,0.00269999 -1.27049,0.107699 -1.86309,0.311898 -0.595597,0.207099 -1.14019,0.496297 -1.64199,0.867795 -0.499197,0.374398 -0.935995,0.810996 -1.30759,1.31599 -0.371498,0.504697 -0.657797,1.05489 -0.864795,1.65599 -0.204199,0.598497 -0.309298,1.22809 -0.311898,1.88879 0.00259999,0.660897 0.107699,1.29039 0.311898,1.89169 0.206999,0.601097 0.493297,1.15419 0.864795,1.65889 0.371598,0.504997 0.808396,0.947395 1.30759,1.32159 0.501797,0.374398 1.04639,0.663597 1.64199,0.870695 0.592597,0.206999 1.21379,0.311898 1.86309,0.314798zm14.4294 -10.6348l0 -1.25919 -8.38876 0 0 11.6898 8.38876 0 0 -1.25909 -7.04456 0 0 -4.06688 6.34697 0 0 -1.25909 -6.34697 0 0 -3.84558 7.04456 0z"/>
    <path id="_116801792" class="fil3" d="M76.9465 85.1232l1.44639 0 -5.15587 -11.6898 -1.44649 0 -5.15577 11.6898 1.44649 0 1.17409 -2.65449 6.51707 0 1.17409 2.65449zm-7.14666 -3.91358l2.72259 -6.14267 2.70539 6.14267 -5.42797 0zm16.0118 4.11778c0.541697,-0.00289998 1.06359,-0.0764996 1.56539,-0.221099 0.504897,-0.144599 0.978395,-0.351698 1.42379,-0.618297 0.445098,-0.266599 0.847896,-0.581497 1.21379,-0.947195l-0.901895 -0.918795c-0.286499,0.303398 -0.601097,0.564297 -0.950095,0.785396 -0.348698,0.221299 -0.720196,0.391398 -1.11739,0.510497 -0.396898,0.122099 -0.808096,0.181599 -1.23359,0.184299 -0.635297,-0.00559997 -1.23079,-0.133199 -1.78949,-0.385598 -0.555797,-0.252299 -1.04919,-0.604197 -1.47759,-1.04639 -0.428198,-0.445398 -0.762896,-0.958595 -1.00669,-1.54009 -0.243899,-0.581197 -0.365798,-1.19949 -0.371598,-1.86039 0.00289998,-0.524597 0.0823996,-1.02369 0.241199,-1.50009 0.158699,-0.476598 0.382698,-0.918995 0.669197,-1.31889 0.286499,-0.402698 0.623897,-0.754396 1.01259,-1.05199 0.388398,-0.297898 0.810996,-0.530397 1.27329,-0.694896 0.459498,-0.164399 0.944295,-0.246699 1.44909,-0.249599 0.425498,0 0.836696,0.0623997 1.23359,0.181599 0.397198,0.121799 0.768696,0.292098 1.11739,0.513197 0.348998,0.221299 0.663597,0.482197 0.950095,0.785596l0.901895 -0.918795c-0.365898,-0.371498 -0.768696,-0.689296 -1.21379,-0.955695 -0.445398,-0.266599 -0.918895,-0.470798 -1.42379,-0.612697 -0.501797,-0.144599 -1.02369,-0.218199 -1.56539,-0.218199 -0.649397,0.00269999 -1.27049,0.107699 -1.86319,0.311898 -0.595497,0.207099 -1.14009,0.496297 -1.64199,0.867795 -0.499097,0.374398 -0.935995,0.810996 -1.30749,1.31599 -0.371498,0.504697 -0.657797,1.05489 -0.864795,1.65599 -0.204199,0.598497 -0.309298,1.22809 -0.311998,1.88879 0.00269999,0.660897 0.107799,1.29039 0.311998,1.89169 0.206999,0.601097 0.493297,1.15419 0.864795,1.65889 0.371498,0.504997 0.808396,0.947395 1.30749,1.32159 0.501897,0.374398 1.04649,0.663597 1.64199,0.870695 0.592697,0.206999 1.21379,0.311898 1.86319,0.314798zm15.5525 -0.204199l1.44639 0 -5.15587 -11.6898 -1.44649 0 -5.15577 11.6898 1.44649 0 1.17409 -2.65449 6.51707 0 1.17409 2.65449zm-7.14666 -3.91358l2.72259 -6.14267 2.70539 6.14267 -5.42797 0zm10.737 3.91358l3.94758 0c0.930195,-0.00289998 1.78389,-0.147399 2.55519,-0.433898 0.771396,-0.286299 1.43789,-0.689096 2.00219,-1.21099 0.561597,-0.521797 0.998195,-1.13719 1.30459,-1.85189 0.308998,-0.711796 0.464998,-1.49739 0.467898,-2.35669 -0.00289998,-0.859296 -0.158899,-1.64489 -0.467898,-2.35379 -0.306398,-0.711796 -0.742996,-1.32739 -1.30459,-1.84629 -0.564297,-0.521697 -1.23079,-0.921595 -2.00219,-1.20519 -0.771296,-0.283599 -1.62499,-0.428398 -2.55519,-0.431098l-3.94758 0 0 11.6898zm1.32719 -1.20819l0 -9.27355 2.62039 0c0.734496,0.00289998 1.40659,0.116199 2.01349,0.343098 0.606897,0.224099 1.13439,0.544697 1.57679,0.955695 0.442498,0.414098 0.785696,0.901895 1.02949,1.46349 0.240999,0.564297 0.363098,1.18549 0.365998,1.86599 -0.00289998,0.683496 -0.124999,1.30749 -0.365998,1.87469 -0.243799,0.567197 -0.586997,1.05499 -1.02949,1.46909 -0.442398,0.413898 -0.969895,0.734296 -1.57679,0.958495 -0.606897,0.226799 -1.27899,0.340298 -2.01349,0.342998l-2.62039 0zm19.7723 -9.22245l0 -1.25919 -8.38866 0 0 11.6898 8.38866 0 0 -1.25909 -7.04456 0 0 -4.06688 6.34707 0 0 -1.25909 -6.34707 0 0 -3.84558 7.04456 0zm2.53569 10.4306l1.32709 0 0 -8.83105 4.33898 8.15056 4.33908 -8.15056 0 8.83105 1.32719 0 0 -11.6898 -1.32719 0 -4.33908 8.15066 -4.33898 -8.15066 -1.32709 0 0 11.6898zm17.9516 0l1.39519 0 0 -4.76438 4.69638 -6.92546 -1.59939 0 -3.79448 5.66637 -3.76058 -5.66637 -1.65039 0 4.71328 6.92546 0 4.76438z"/>
   </g>
  </g>
 </g>
</svg>
